# Blender v2.79 (sub 0) OBJ File: ''
# www.blender.org
o Icosphere
v 0.000000 -1.000000 0.000000
v 0.723607 -0.447220 0.525725
v -0.276388 -0.447220 0.850649
v -0.894426 -0.447216 0.000000
v -0.276388 -0.447220 -0.850649
v 0.723607 -0.447220 -0.525725
v 0.276388 0.447220 0.850649
v -0.723607 0.447220 0.525725
v -0.723607 0.447220 -0.525725
v 0.276388 0.447220 -0.850649
v 0.894426 0.447216 0.000000
v 0.000000 1.000000 0.000000
v -0.232822 -0.657519 0.716563
v -0.162456 -0.850654 0.499995
v -0.077607 -0.967950 0.238853
v 0.203181 -0.967950 0.147618
v 0.425323 -0.850654 0.309011
v 0.609547 -0.657519 0.442856
v 0.531941 -0.502302 0.681712
v 0.262869 -0.525738 0.809012
v -0.029639 -0.502302 0.864184
v 0.812729 -0.502301 -0.295238
v 0.850648 -0.525736 0.000000
v 0.812729 -0.502301 0.295238
v 0.203181 -0.967950 -0.147618
v 0.425323 -0.850654 -0.309011
v 0.609547 -0.657519 -0.442856
v -0.753442 -0.657515 0.000000
v -0.525730 -0.850652 0.000000
v -0.251147 -0.967949 0.000000
v -0.483971 -0.502302 0.716565
v -0.688189 -0.525736 0.499997
v -0.831051 -0.502299 0.238853
v -0.232822 -0.657519 -0.716563
v -0.162456 -0.850654 -0.499995
v -0.077607 -0.967950 -0.238853
v -0.831051 -0.502299 -0.238853
v -0.688189 -0.525736 -0.499997
v -0.483971 -0.502302 -0.716565
v -0.029639 -0.502302 -0.864184
v 0.262869 -0.525738 -0.809012
v 0.531941 -0.502302 -0.681712
v 0.956626 0.251149 0.147618
v 0.951058 -0.000000 0.309013
v 0.860698 -0.251151 0.442858
v 0.860698 -0.251151 -0.442858
v 0.951058 0.000000 -0.309013
v 0.956626 0.251149 -0.147618
v 0.155215 0.251152 0.955422
v 0.000000 -0.000000 1.000000
v -0.155215 -0.251152 0.955422
v 0.687159 -0.251152 0.681715
v 0.587786 0.000000 0.809017
v 0.436007 0.251152 0.864188
v -0.860698 0.251151 0.442858
v -0.951058 -0.000000 0.309013
v -0.956626 -0.251149 0.147618
v -0.436007 -0.251152 0.864188
v -0.587786 0.000000 0.809017
v -0.687159 0.251152 0.681715
v -0.687159 0.251152 -0.681715
v -0.587786 -0.000000 -0.809017
v -0.436007 -0.251152 -0.864188
v -0.956626 -0.251149 -0.147618
v -0.951058 0.000000 -0.309013
v -0.860698 0.251151 -0.442858
v 0.436007 0.251152 -0.864188
v 0.587786 -0.000000 -0.809017
v 0.687159 -0.251152 -0.681715
v -0.155215 -0.251152 -0.955422
v 0.000000 0.000000 -1.000000
v 0.155215 0.251152 -0.955422
v 0.831051 0.502299 0.238853
v 0.688189 0.525736 0.499997
v 0.483971 0.502302 0.716565
v 0.029639 0.502302 0.864184
v -0.262869 0.525738 0.809012
v -0.531941 0.502302 0.681712
v -0.812729 0.502301 0.295238
v -0.850648 0.525736 0.000000
v -0.812729 0.502301 -0.295238
v -0.531941 0.502302 -0.681712
v -0.262869 0.525738 -0.809012
v 0.029639 0.502302 -0.864184
v 0.483971 0.502302 -0.716565
v 0.688189 0.525736 -0.499997
v 0.831051 0.502299 -0.238853
v 0.077607 0.967950 0.238853
v 0.162456 0.850654 0.499995
v 0.232822 0.657519 0.716563
v 0.753442 0.657515 0.000000
v 0.525730 0.850652 0.000000
v 0.251147 0.967949 0.000000
v -0.203181 0.967950 0.147618
v -0.425323 0.850654 0.309011
v -0.609547 0.657519 0.442856
v -0.203181 0.967950 -0.147618
v -0.425323 0.850654 -0.309011
v -0.609547 0.657519 -0.442856
v 0.077607 0.967950 -0.238853
v 0.162456 0.850654 -0.499995
v 0.232822 0.657519 -0.716563
v 0.361800 0.894429 -0.262863
v 0.638194 0.723610 -0.262864
v 0.447209 0.723612 -0.525728
v -0.138197 0.894430 -0.425319
v -0.052790 0.723612 -0.688185
v -0.361804 0.723612 -0.587778
v -0.447210 0.894429 0.000000
v -0.670817 0.723611 -0.162457
v -0.670817 0.723611 0.162457
v -0.138197 0.894430 0.425319
v -0.361804 0.723612 0.587778
v -0.052790 0.723612 0.688185
v 0.361800 0.894429 0.262863
v 0.447209 0.723612 0.525728
v 0.638194 0.723610 0.262864
v 0.861804 0.276396 -0.425322
v 0.809019 0.000000 -0.587782
v 0.670821 0.276397 -0.688189
v -0.138199 0.276397 -0.951055
v -0.309016 -0.000000 -0.951057
v -0.447215 0.276397 -0.850649
v -0.947213 0.276396 -0.162458
v -1.000000 0.000001 0.000000
v -0.947213 0.276397 0.162458
v -0.447216 0.276397 0.850648
v -0.309017 -0.000001 0.951056
v -0.138199 0.276397 0.951055
v 0.670820 0.276396 0.688190
v 0.809019 -0.000002 0.587783
v 0.861804 0.276394 0.425323
v 0.309017 -0.000000 -0.951056
v 0.447216 -0.276398 -0.850648
v 0.138199 -0.276398 -0.951055
v -0.809018 -0.000000 -0.587783
v -0.670819 -0.276397 -0.688191
v -0.861803 -0.276396 -0.425324
v -0.809018 0.000000 0.587783
v -0.861803 -0.276396 0.425324
v -0.670819 -0.276397 0.688191
v 0.309017 0.000000 0.951056
v 0.138199 -0.276398 0.951055
v 0.447216 -0.276398 0.850648
v 1.000000 0.000000 0.000000
v 0.947213 -0.276396 0.162458
v 0.947213 -0.276396 -0.162458
v 0.361803 -0.723612 -0.587779
v 0.138197 -0.894429 -0.425321
v 0.052789 -0.723611 -0.688186
v -0.447211 -0.723612 -0.525727
v -0.361801 -0.894429 -0.262863
v -0.638195 -0.723609 -0.262863
v -0.638195 -0.723609 0.262864
v -0.361801 -0.894428 0.262864
v -0.447211 -0.723610 0.525729
v 0.670817 -0.723611 -0.162457
v 0.670818 -0.723610 0.162458
v 0.447211 -0.894428 0.000001
v 0.052790 -0.723612 0.688185
v 0.138199 -0.894429 0.425321
v 0.361805 -0.723611 0.587779
vt 0.995591 0.156051
vt 1.039292 0.221029
vt 0.966792 0.230138
vt 0.102117 0.471290
vt 0.088302 0.395108
vt 0.135193 0.423529
vt 0.910308 0.160805
vt 0.973071 0.076680
vt 1.084973 0.139707
vt 0.135174 0.517852
vt 0.925874 0.492441
vt 0.966157 0.485577
vt 0.941932 0.566685
vt 0.758128 0.344309
vt 0.801077 0.368156
vt 0.761243 0.424908
vt 0.528489 0.198442
vt 0.598375 0.196275
vt 0.555009 0.271140
vt 0.271351 0.304159
vt 0.308935 0.246810
vt 0.313878 0.340810
vt 0.090325 0.548602
vt 0.895255 0.545373
vt 0.717899 0.379187
vt 0.491667 0.263174
vt 0.267850 0.384733
vt 0.028489 0.801558
vt 0.098375 0.803725
vt 0.040383 0.881612
vt 0.771351 0.695841
vt 0.808935 0.753190
vt 0.740587 0.762306
vt 0.602117 0.528710
vt 0.635193 0.576471
vt 0.588302 0.604892
vt 0.425874 0.507559
vt 0.466157 0.514423
vt 0.435143 0.586272
vt 0.258128 0.655691
vt 0.301077 0.631844
vt 0.285670 0.722521
vt 0.410308 0.839195
vt 0.466793 0.769862
vt 0.495591 0.843949
vt 0.333228 0.792384
vt 0.400499 0.745824
vt 0.342117 0.693189
vt 0.448019 0.678752
vt 0.394707 0.642364
vt 0.347753 0.593698
vt 0.390893 0.548550
vt 0.539292 0.778971
vt 0.507311 0.697109
vt 0.483652 0.602049
vt 0.568565 0.693638
vt 0.538494 0.608948
vt 0.513809 0.521311
vt 0.561579 0.526304
vt 0.584973 0.860293
vt 0.611770 0.770634
vt 0.626258 0.669113
vt 0.682181 0.828170
vt 0.679168 0.728242
vt 0.677484 0.628283
vt 0.725449 0.670902
vt 0.473071 0.923320
vt 0.692305 0.927928
vt 0.783647 0.842599
vt 1.134480 0.970694
vt 0.897881 0.901753
vt 1.040383 0.881612
vt 0.872522 0.804067
vt 0.957817 0.820980
vt 1.028489 0.801558
vt 0.134480 0.970694
vt 0.311541 0.890409
vt 0.167024 0.871472
vt 0.248841 0.802653
vt 0.171544 0.771579
vt 0.224778 0.714395
vt 0.261243 0.575092
vt 0.264482 0.479909
vt 0.305223 0.538087
vt 0.309491 0.434548
vt 0.352383 0.494116
vt 0.357068 0.394537
vt 0.395255 0.454627
vt 0.441932 0.433315
vt 0.463255 0.346681
vt 0.490041 0.433182
vt 0.519791 0.345478
vt 0.542936 0.439838
vt 0.575069 0.360530
vt 0.590325 0.451398
vt 0.635174 0.482148
vt 0.675009 0.428341
vt 0.676211 0.528313
vt 0.720287 0.473168
vt 0.722801 0.576934
vt 0.764482 0.520091
vt 0.767850 0.615267
vt 0.813878 0.659190
vt 0.857068 0.605463
vt 0.862926 0.704935
vt 0.908374 0.636066
vt 0.927716 0.734903
vt 0.963255 0.653319
vt 0.991667 0.736826
vt 0.055009 0.728860
vt 0.075069 0.639470
vt 0.115418 0.712515
vt 0.126942 0.610566
vt 0.173613 0.671627
vt 0.175009 0.571659
vt 0.217899 0.620813
vt 0.408374 0.363934
vt 0.362926 0.295065
vt 0.427716 0.265096
vt 0.372522 0.195933
vt 0.457817 0.179020
vt 0.626942 0.389434
vt 0.615418 0.287485
vt 0.673613 0.328372
vt 0.671544 0.228421
vt 0.724778 0.285605
vt 0.809491 0.565452
vt 0.805224 0.461913
vt 0.852383 0.505885
vt 0.847753 0.406302
vt 0.890893 0.451450
vt 1.055009 0.728860
vt 1.019791 0.654522
vt 0.990041 0.566818
vt 0.019791 0.654522
vt 1.042937 0.560162
vt 0.042937 0.560162
vt 1.013809 0.478689
vt 0.013809 0.478689
vt 0.061579 0.473696
vt 0.220287 0.526832
vt 0.176211 0.471687
vt 0.222801 0.423066
vt 0.177484 0.371717
vt 0.225449 0.329098
vt 0.240587 0.237694
vt 0.182181 0.171830
vt 0.283648 0.157401
vt 0.084973 0.139707
vt 0.192306 0.072072
vt 0.397882 0.098248
vt 1.192306 0.072072
vt 0.634480 0.029306
vt 0.540383 0.118388
vt 0.667025 0.128528
vt 0.811541 0.109592
vt 0.748841 0.197348
vt 0.833228 0.207616
vt 0.785670 0.277479
vt 0.842117 0.306812
vt 0.900499 0.254177
vt 0.894707 0.357636
vt 0.948019 0.321248
vt 0.935143 0.413728
vt 0.179168 0.271758
vt 0.126258 0.330887
vt 0.111771 0.229367
vt 0.068565 0.306362
vt 0.039292 0.221029
vt 0.983652 0.397952
vt 1.007311 0.302892
vt 1.038494 0.391052
vt 0.038494 0.391052
vt 0.007311 0.302892
vn 0.0000 -1.0000 0.0000
vn 0.2109 -0.9654 0.1533
vn -0.0806 -0.9654 0.2480
vn 0.7236 -0.4472 0.5257
vn 0.6042 -0.6650 0.4390
vn 0.8152 -0.5038 0.2857
vn -0.2608 -0.9654 0.0000
vn -0.0806 -0.9654 -0.2480
vn 0.2109 -0.9654 -0.1533
vn 0.8650 -0.2430 0.4390
vn -0.2764 -0.4472 0.8506
vn -0.0198 -0.5038 0.8636
vn -0.1502 -0.2430 0.9583
vn -0.8944 -0.4472 0.0000
vn -0.8274 -0.5038 0.2480
vn -0.9578 -0.2430 0.1533
vn -0.2764 -0.4472 -0.8506
vn -0.4915 -0.5038 -0.7103
vn -0.4417 -0.2430 -0.8636
vn 0.7236 -0.4472 -0.5257
vn 0.5236 -0.5038 -0.6870
vn 0.6848 -0.2430 -0.6870
vn 0.6848 -0.2430 0.6870
vn -0.4417 -0.2430 0.8636
vn -0.9578 -0.2430 -0.1533
vn -0.1502 -0.2430 -0.9583
vn 0.8650 -0.2430 -0.4390
vn 0.2764 0.4472 0.8506
vn 0.4915 0.5038 0.7103
vn 0.2308 0.6650 0.7103
vn -0.7236 0.4472 0.5257
vn -0.5236 0.5038 0.6870
vn -0.6042 0.6650 0.4390
vn -0.7236 0.4472 -0.5257
vn -0.8152 0.5038 -0.2857
vn -0.6042 0.6650 -0.4390
vn 0.2764 0.4472 -0.8506
vn 0.0198 0.5038 -0.8636
vn 0.2308 0.6650 -0.7103
vn 0.8944 0.4472 0.0000
vn 0.8274 0.5038 -0.2480
vn 0.7468 0.6650 0.0000
vn 0.2608 0.9654 0.0000
vn 0.0806 0.9654 -0.2480
vn 0.0000 1.0000 0.0000
vn 0.5257 0.8506 0.0000
vn 0.3682 0.8904 -0.2675
vn 0.6317 0.7275 -0.2675
vn 0.1625 0.8506 -0.5000
vn 0.4496 0.7275 -0.5181
vn 0.6882 0.5257 -0.5000
vn 0.4915 0.5038 -0.7103
vn -0.2109 0.9654 -0.1533
vn -0.1406 0.8904 -0.4328
vn -0.0592 0.7275 -0.6835
vn -0.4253 0.8506 -0.3090
vn -0.3538 0.7275 -0.5877
vn -0.2629 0.5257 -0.8090
vn -0.5236 0.5038 -0.6870
vn -0.2109 0.9654 0.1533
vn -0.4551 0.8904 0.0000
vn -0.6683 0.7275 -0.1549
vn -0.4253 0.8506 0.3090
vn -0.6683 0.7275 0.1549
vn -0.8506 0.5257 0.0000
vn -0.8152 0.5038 0.2857
vn 0.0806 0.9654 0.2480
vn -0.1406 0.8904 0.4328
vn -0.3538 0.7275 0.5877
vn 0.1625 0.8506 0.5000
vn -0.0592 0.7275 0.6835
vn -0.2629 0.5257 0.8090
vn 0.0198 0.5038 0.8636
vn 0.3682 0.8904 0.2675
vn 0.4496 0.7275 0.5181
vn 0.6317 0.7275 0.2675
vn 0.6882 0.5257 0.5000
vn 0.8274 0.5038 0.2480
vn 0.9578 0.2430 -0.1533
vn 0.9510 0.0000 -0.3090
vn 0.8593 0.2724 -0.4328
vn 0.8090 0.0089 -0.5878
vn 0.6772 0.2724 -0.6835
vn 0.5878 0.0000 -0.8090
vn 0.4417 0.2430 -0.8636
vn 0.1502 0.2430 -0.9583
vn 0.0000 0.0000 -1.0000
vn -0.1461 0.2724 -0.9510
vn -0.3090 0.0089 -0.9510
vn -0.4407 0.2724 -0.8553
vn -0.5878 0.0000 -0.8090
vn -0.6848 0.2430 -0.6870
vn -0.8650 0.2430 -0.4390
vn -0.9510 0.0000 -0.3090
vn -0.9496 0.2724 -0.1549
vn -0.9999 0.0089 0.0000
vn -0.9496 0.2724 0.1549
vn -0.9510 0.0000 0.3090
vn -0.8650 0.2430 0.4390
vn -0.6848 0.2430 0.6870
vn -0.5878 0.0000 0.8090
vn -0.4407 0.2724 0.8553
vn -0.3090 0.0089 0.9510
vn -0.1461 0.2724 0.9510
vn 0.0000 0.0000 1.0000
vn 0.1502 0.2430 0.9583
vn 0.4417 0.2430 0.8636
vn 0.5878 0.0000 0.8090
vn 0.6772 0.2724 0.6835
vn 0.8090 0.0089 0.5878
vn 0.8593 0.2724 0.4328
vn 0.9510 0.0000 0.3090
vn 0.9578 0.2430 0.1533
vn 0.3090 -0.0089 -0.9510
vn 0.4407 -0.2724 -0.8553
vn 0.1461 -0.2724 -0.9510
vn 0.2629 -0.5257 -0.8090
vn -0.0198 -0.5038 -0.8636
vn -0.8090 -0.0089 -0.5878
vn -0.6772 -0.2724 -0.6835
vn -0.8593 -0.2724 -0.4328
vn -0.6882 -0.5257 -0.5000
vn -0.8274 -0.5038 -0.2480
vn -0.8090 -0.0089 0.5878
vn -0.8593 -0.2724 0.4328
vn -0.6772 -0.2724 0.6835
vn -0.6882 -0.5257 0.5000
vn -0.4915 -0.5038 0.7103
vn 0.3090 -0.0089 0.9510
vn 0.1461 -0.2724 0.9510
vn 0.4407 -0.2724 0.8553
vn 0.2629 -0.5257 0.8090
vn 0.5236 -0.5038 0.6870
vn 0.9999 -0.0089 0.0000
vn 0.9496 -0.2724 0.1549
vn 0.9496 -0.2724 -0.1549
vn 0.8506 -0.5257 0.0000
vn 0.8152 -0.5038 -0.2857
vn 0.6042 -0.6650 -0.4390
vn 0.4253 -0.8506 -0.3090
vn 0.3538 -0.7275 -0.5878
vn 0.1406 -0.8904 -0.4328
vn 0.0592 -0.7275 -0.6835
vn -0.1625 -0.8506 -0.5000
vn -0.2308 -0.6650 -0.7103
vn -0.4496 -0.7275 -0.5181
vn -0.3682 -0.8904 -0.2675
vn -0.6317 -0.7275 -0.2675
vn -0.5257 -0.8506 0.0000
vn -0.7468 -0.6650 0.0000
vn -0.6317 -0.7275 0.2675
vn -0.3682 -0.8904 0.2675
vn -0.4496 -0.7275 0.5181
vn -0.1625 -0.8506 0.5000
vn -0.2308 -0.6650 0.7103
vn 0.6683 -0.7275 -0.1549
vn 0.6683 -0.7275 0.1549
vn 0.4551 -0.8904 0.0000
vn 0.4253 -0.8506 0.3090
vn 0.0592 -0.7275 0.6835
vn 0.1406 -0.8904 0.4328
vn 0.3538 -0.7275 0.5878
s 1
f 1/1/1 16/2/2 15/3/3
f 2/4/4 18/5/5 24/6/6
f 1/1/1 15/3/3 30/7/7
f 1/1/1 30/7/7 36/8/8
f 1/1/1 36/8/8 25/9/9
f 2/4/4 24/6/6 45/10/10
f 3/11/11 21/12/12 51/13/13
f 4/14/14 33/15/15 57/16/16
f 5/17/17 39/18/18 63/19/19
f 6/20/20 42/21/21 69/22/22
f 2/4/4 45/10/10 52/23/23
f 3/11/11 51/13/13 58/24/24
f 4/14/14 57/16/16 64/25/25
f 5/17/17 63/19/19 70/26/26
f 6/20/20 69/22/22 46/27/27
f 7/28/28 75/29/29 90/30/30
f 8/31/31 78/32/32 96/33/33
f 9/34/34 81/35/35 99/36/36
f 10/37/37 84/38/38 102/39/39
f 11/40/40 87/41/41 91/42/42
f 93/43/43 100/44/44 12/45/45
f 92/46/46 103/47/47 93/43/43
f 91/42/42 104/48/48 92/46/46
f 93/43/43 103/47/47 100/44/44
f 103/47/47 101/49/49 100/44/44
f 92/46/46 104/48/48 103/47/47
f 104/48/48 105/50/50 103/47/47
f 103/47/47 105/50/50 101/49/49
f 105/50/50 102/39/39 101/49/49
f 91/42/42 87/41/41 104/48/48
f 87/41/41 86/51/51 104/48/48
f 104/48/48 86/51/51 105/50/50
f 86/51/51 85/52/52 105/50/50
f 105/50/50 85/52/52 102/39/39
f 85/52/52 10/37/37 102/39/39
f 100/44/44 97/53/53 12/45/45
f 101/49/49 106/54/54 100/44/44
f 102/39/39 107/55/55 101/49/49
f 100/44/44 106/54/54 97/53/53
f 106/54/54 98/56/56 97/53/53
f 101/49/49 107/55/55 106/54/54
f 107/55/55 108/57/57 106/54/54
f 106/54/54 108/57/57 98/56/56
f 108/57/57 99/36/36 98/56/56
f 102/39/39 84/38/38 107/55/55
f 84/38/38 83/58/58 107/55/55
f 107/55/55 83/58/58 108/57/57
f 83/58/58 82/59/59 108/57/57
f 108/57/57 82/59/59 99/36/36
f 82/59/59 9/34/34 99/36/36
f 97/53/53 94/60/60 12/45/45
f 98/56/56 109/61/61 97/53/53
f 99/36/36 110/62/62 98/56/56
f 97/53/53 109/61/61 94/60/60
f 109/61/61 95/63/63 94/60/60
f 98/56/56 110/62/62 109/61/61
f 110/62/62 111/64/64 109/61/61
f 109/61/61 111/64/64 95/63/63
f 111/64/64 96/33/33 95/63/63
f 99/36/36 81/35/35 110/62/62
f 81/35/35 80/65/65 110/62/62
f 110/62/62 80/65/65 111/64/64
f 80/65/65 79/66/66 111/64/64
f 111/64/64 79/66/66 96/33/33
f 79/66/66 8/31/31 96/33/33
f 94/60/60 88/67/67 12/45/45
f 95/63/63 112/68/68 94/60/60
f 96/33/33 113/69/69 95/63/63
f 94/60/60 112/68/68 88/67/67
f 112/68/68 89/70/70 88/67/67
f 95/63/63 113/69/69 112/68/68
f 113/69/69 114/71/71 112/68/68
f 112/68/68 114/71/71 89/70/70
f 114/71/71 90/72/30 89/70/70
f 96/33/33 78/32/32 113/69/69
f 78/32/32 77/73/72 113/69/69
f 113/69/69 77/73/72 114/71/71
f 77/73/72 76/74/73 114/71/71
f 114/71/71 76/74/73 90/72/30
f 76/74/73 7/75/28 90/72/30
f 88/67/67 93/43/43 12/45/45
f 89/76/70 115/77/74 88/67/67
f 90/30/30 116/78/75 89/76/70
f 88/67/67 115/77/74 93/43/43
f 115/77/74 92/46/46 93/43/43
f 89/76/70 116/78/75 115/77/74
f 116/78/75 117/79/76 115/77/74
f 115/77/74 117/79/76 92/46/46
f 117/79/76 91/42/42 92/46/46
f 90/30/30 75/29/29 116/78/75
f 75/29/29 74/80/77 116/78/75
f 116/78/75 74/80/77 117/79/76
f 74/80/77 73/81/78 117/79/76
f 117/79/76 73/81/78 91/42/42
f 73/81/78 11/40/40 91/42/42
f 48/82/79 87/41/41 11/40/40
f 47/83/80 118/84/81 48/82/79
f 46/27/27 119/85/82 47/83/80
f 48/82/79 118/84/81 87/41/41
f 118/84/81 86/51/51 87/41/41
f 47/83/80 119/85/82 118/84/81
f 119/85/82 120/86/83 118/84/81
f 118/84/81 120/86/83 86/51/51
f 120/86/83 85/52/52 86/51/51
f 46/27/27 69/22/22 119/85/82
f 69/22/22 68/87/84 119/85/82
f 119/85/82 68/87/84 120/86/83
f 68/87/84 67/88/85 120/86/83
f 120/86/83 67/88/85 85/52/52
f 67/88/85 10/37/37 85/52/52
f 72/89/86 84/38/38 10/37/37
f 71/90/87 121/91/88 72/89/86
f 70/26/26 122/92/89 71/90/87
f 72/89/86 121/91/88 84/38/38
f 121/91/88 83/58/58 84/38/38
f 71/90/87 122/92/89 121/91/88
f 122/92/89 123/93/90 121/91/88
f 121/91/88 123/93/90 83/58/58
f 123/93/90 82/59/59 83/58/58
f 70/26/26 63/19/19 122/92/89
f 63/19/19 62/94/91 122/92/89
f 122/92/89 62/94/91 123/93/90
f 62/94/91 61/95/92 123/93/90
f 123/93/90 61/95/92 82/59/59
f 61/95/92 9/34/34 82/59/59
f 66/96/93 81/35/35 9/34/34
f 65/97/94 124/98/95 66/96/93
f 64/25/25 125/99/96 65/97/94
f 66/96/93 124/98/95 81/35/35
f 124/98/95 80/65/65 81/35/35
f 65/97/94 125/99/96 124/98/95
f 125/99/96 126/100/97 124/98/95
f 124/98/95 126/100/97 80/65/65
f 126/100/97 79/66/66 80/65/65
f 64/25/25 57/16/16 125/99/96
f 57/16/16 56/101/98 125/99/96
f 125/99/96 56/101/98 126/100/97
f 56/101/98 55/102/99 126/100/97
f 126/100/97 55/102/99 79/66/66
f 55/102/99 8/31/31 79/66/66
f 60/103/100 78/32/32 8/31/31
f 59/104/101 127/105/102 60/103/100
f 58/24/24 128/106/103 59/104/101
f 60/103/100 127/105/102 78/32/32
f 127/105/102 77/73/72 78/32/32
f 59/104/101 128/106/103 127/105/102
f 128/106/103 129/107/104 127/105/102
f 127/105/102 129/107/104 77/73/72
f 129/107/104 76/74/73 77/73/72
f 58/24/24 51/13/13 128/106/103
f 51/13/13 50/108/105 128/106/103
f 128/106/103 50/108/105 129/107/104
f 50/108/105 49/109/106 129/107/104
f 129/107/104 49/109/106 76/74/73
f 49/109/106 7/75/28 76/74/73
f 54/110/107 75/29/29 7/28/28
f 53/111/108 130/112/109 54/110/107
f 52/23/23 131/113/110 53/111/108
f 54/110/107 130/112/109 75/29/29
f 130/112/109 74/80/77 75/29/29
f 53/111/108 131/113/110 130/112/109
f 131/113/110 132/114/111 130/112/109
f 130/112/109 132/114/111 74/80/77
f 132/114/111 73/81/78 74/80/77
f 52/23/23 45/10/10 131/113/110
f 45/10/10 44/115/112 131/113/110
f 131/113/110 44/115/112 132/114/111
f 44/115/112 43/116/113 132/114/111
f 132/114/111 43/116/113 73/81/78
f 43/116/113 11/40/40 73/81/78
f 67/88/85 72/89/86 10/37/37
f 68/87/84 133/117/114 67/88/85
f 69/22/22 134/118/115 68/87/84
f 67/88/85 133/117/114 72/89/86
f 133/117/114 71/90/87 72/89/86
f 68/87/84 134/118/115 133/117/114
f 134/118/115 135/119/116 133/117/114
f 133/117/114 135/119/116 71/90/87
f 135/119/116 70/26/26 71/90/87
f 69/22/22 42/21/21 134/118/115
f 42/21/21 41/120/117 134/118/115
f 134/118/115 41/120/117 135/119/116
f 41/120/117 40/121/118 135/119/116
f 135/119/116 40/121/118 70/26/26
f 40/121/118 5/17/17 70/26/26
f 61/95/92 66/96/93 9/34/34
f 62/94/91 136/122/119 61/95/92
f 63/19/19 137/123/120 62/94/91
f 61/95/92 136/122/119 66/96/93
f 136/122/119 65/97/94 66/96/93
f 62/94/91 137/123/120 136/122/119
f 137/123/120 138/124/121 136/122/119
f 136/122/119 138/124/121 65/97/94
f 138/124/121 64/25/25 65/97/94
f 63/19/19 39/18/18 137/123/120
f 39/18/18 38/125/122 137/123/120
f 137/123/120 38/125/122 138/124/121
f 38/125/122 37/126/123 138/124/121
f 138/124/121 37/126/123 64/25/25
f 37/126/123 4/14/14 64/25/25
f 55/102/99 60/103/100 8/31/31
f 56/101/98 139/127/124 55/102/99
f 57/16/16 140/128/125 56/101/98
f 55/102/99 139/127/124 60/103/100
f 139/127/124 59/104/101 60/103/100
f 56/101/98 140/128/125 139/127/124
f 140/128/125 141/129/126 139/127/124
f 139/127/124 141/129/126 59/104/101
f 141/129/126 58/24/24 59/104/101
f 57/16/16 33/15/15 140/128/125
f 33/15/15 32/130/127 140/128/125
f 140/128/125 32/130/127 141/129/126
f 32/130/127 31/131/128 141/129/126
f 141/129/126 31/131/128 58/24/24
f 31/131/128 3/11/11 58/24/24
f 49/109/106 54/132/107 7/75/28
f 50/108/105 142/133/129 49/109/106
f 51/13/13 143/134/130 50/108/105
f 49/109/106 142/133/129 54/132/107
f 142/135/129 53/111/108 54/110/107
f 50/108/105 143/134/130 142/133/129
f 143/134/130 144/136/131 142/133/129
f 142/135/129 144/137/131 53/111/108
f 144/137/131 52/23/23 53/111/108
f 51/13/13 21/12/12 143/134/130
f 21/12/12 20/138/132 143/134/130
f 143/134/130 20/138/132 144/136/131
f 20/139/132 19/140/133 144/137/131
f 144/137/131 19/140/133 52/23/23
f 19/140/133 2/4/4 52/23/23
f 43/116/113 48/82/79 11/40/40
f 44/115/112 145/141/134 43/116/113
f 45/10/10 146/142/135 44/115/112
f 43/116/113 145/141/134 48/82/79
f 145/141/134 47/83/80 48/82/79
f 44/115/112 146/142/135 145/141/134
f 146/142/135 147/143/136 145/141/134
f 145/141/134 147/143/136 47/83/80
f 147/143/136 46/27/27 47/83/80
f 45/10/10 24/6/6 146/142/135
f 24/6/6 23/144/137 146/142/135
f 146/142/135 23/144/137 147/143/136
f 23/144/137 22/145/138 147/143/136
f 147/143/136 22/145/138 46/27/27
f 22/145/138 6/20/20 46/27/27
f 27/146/139 42/21/21 6/20/20
f 26/147/140 148/148/141 27/146/139
f 25/149/9 149/150/142 26/147/140
f 27/146/139 148/148/141 42/21/21
f 148/148/141 41/120/117 42/21/21
f 26/147/140 149/150/142 148/148/141
f 149/150/142 150/151/143 148/148/141
f 148/148/141 150/151/143 41/120/117
f 150/151/143 40/121/118 41/120/117
f 25/9/9 36/8/8 149/152/142
f 36/8/8 35/153/144 149/152/142
f 149/150/142 35/153/144 150/151/143
f 35/153/144 34/154/145 150/151/143
f 150/151/143 34/154/145 40/121/118
f 34/154/145 5/17/17 40/121/118
f 34/154/145 39/18/18 5/17/17
f 35/153/144 151/155/146 34/154/145
f 36/8/8 152/156/147 35/153/144
f 34/154/145 151/155/146 39/18/18
f 151/155/146 38/125/122 39/18/18
f 35/153/144 152/156/147 151/155/146
f 152/156/147 153/157/148 151/155/146
f 151/155/146 153/157/148 38/125/122
f 153/157/148 37/126/123 38/125/122
f 36/8/8 30/7/7 152/156/147
f 30/7/7 29/158/149 152/156/147
f 152/156/147 29/158/149 153/157/148
f 29/158/149 28/159/150 153/157/148
f 153/157/148 28/159/150 37/126/123
f 28/159/150 4/14/14 37/126/123
f 28/159/150 33/15/15 4/14/14
f 29/158/149 154/160/151 28/159/150
f 30/7/7 155/161/152 29/158/149
f 28/159/150 154/160/151 33/15/15
f 154/160/151 32/130/127 33/15/15
f 29/158/149 155/161/152 154/160/151
f 155/161/152 156/162/153 154/160/151
f 154/160/151 156/162/153 32/130/127
f 156/162/153 31/131/128 32/130/127
f 30/7/7 15/3/3 155/161/152
f 15/3/3 14/163/154 155/161/152
f 155/161/152 14/163/154 156/162/153
f 14/163/154 13/164/155 156/162/153
f 156/162/153 13/164/155 31/131/128
f 13/164/155 3/11/11 31/131/128
f 22/145/138 27/146/139 6/20/20
f 23/144/137 157/165/156 22/145/138
f 24/6/6 158/166/157 23/144/137
f 22/145/138 157/165/156 27/146/139
f 157/165/156 26/147/140 27/146/139
f 23/144/137 158/166/157 157/165/156
f 158/166/157 159/167/158 157/165/156
f 157/165/156 159/167/158 26/147/140
f 159/167/158 25/149/9 26/147/140
f 24/6/6 18/5/5 158/166/157
f 18/5/5 17/168/159 158/166/157
f 158/166/157 17/168/159 159/167/158
f 17/168/159 16/169/2 159/167/158
f 159/167/158 16/169/2 25/149/9
f 16/2/2 1/1/1 25/9/9
f 13/164/155 21/12/12 3/11/11
f 14/163/154 160/170/160 13/164/155
f 15/3/3 161/171/161 14/163/154
f 13/164/155 160/170/160 21/12/12
f 160/170/160 20/138/132 21/12/12
f 14/163/154 161/171/161 160/170/160
f 161/171/161 162/172/162 160/170/160
f 160/170/160 162/172/162 20/138/132
f 162/173/162 19/140/133 20/139/132
f 15/3/3 16/2/2 161/171/161
f 16/169/2 17/168/159 161/174/161
f 161/174/161 17/168/159 162/173/162
f 17/168/159 18/5/5 162/173/162
f 162/173/162 18/5/5 19/140/133
f 18/5/5 2/4/4 19/140/133
