# Blender v2.79 (sub 0) OBJ File: ''
# www.blender.org
o Triangle.001
v 0.000000 0.100000 0.000000
v 0.800000 0.000000 0.000000
v 0.800000 0.100000 0.000000
v 0.400000 0.100000 -0.400000
v 0.000000 0.000000 0.000000
v 0.400000 0.000000 -0.400000
vn 0.0000 -0.0000 1.0000
vn 0.7071 0.0000 -0.7071
vn 0.0000 -1.0000 -0.0000
vn -0.7071 0.0000 -0.7071
vn 0.0000 1.0000 0.0000
s 1
f 1//1 2//1 3//1
f 2//2 4//2 3//2
f 2//3 5//3 6//3
f 1//4 6//4 5//4
f 4//5 1//5 3//5
f 1//1 5//1 2//1
f 2//2 6//2 4//2
f 1//4 4//4 6//4
